name D:\school\WTK\thesis\model\3dpredictsim\Results\MidTarsalJoint\Fal_s1_bCst_PF_Natali2010_ls150_MT_k100_d010_MTP_T5_ig24.mot
datacolumns 128
datarows 4
range 1.73976506 1.77456036
endheader
time	pelvis_tilt	pelvis_list	pelvis_rotation	pelvis_tx	pelvis_ty	pelvis_tz	hip_flexion_l	hip_adduction_l	hip_rotation_l	hip_flexion_r	hip_adduction_r	hip_rotation_r	knee_angle_l	knee_angle_r	ankle_angle_l	ankle_angle_r	subtalar_angle_l	subtalar_angle_r	mtj_angle_l	mtj_angle_r	mtp_angle_l	mtp_angle_r	lumbar_extension	lumbar_bending	lumbar_rotation	arm_flex_l	arm_add_l	arm_rot_l	arm_flex_r	arm_add_r	arm_rot_r	elbow_flex_l	elbow_flex_r	pro_sup_l	pro_sup_r	glut_med1_l/activation	glut_med2_l/activation	glut_med3_l/activation	glut_min1_l/activation	glut_min2_l/activation	glut_min3_l/activation	semimem_l/activation	semiten_l/activation	bifemlh_l/activation	bifemsh_l/activation	sar_l/activation	add_long_l/activation	add_brev_l/activation	add_mag1_l/activation	add_mag2_l/activation	add_mag3_l/activation	tfl_l/activation	pect_l/activation	grac_l/activation	glut_max1_l/activation	glut_max2_l/activation	glut_max3_l/activation	iliacus_l/activation	psoas_l/activation	quad_fem_l/activation	gem_l/activation	peri_l/activation	rect_fem_l/activation	vas_med_l/activation	vas_int_l/activation	vas_lat_l/activation	med_gas_l/activation	lat_gas_l/activation	soleus_l/activation	tib_post_l/activation	flex_dig_l/activation	flex_hal_l/activation	tib_ant_l/activation	per_brev_l/activation	per_long_l/activation	per_tert_l/activation	ext_dig_l/activation	ext_hal_l/activation	ercspn_l/activation	intobl_l/activation	extobl_l/activation	glut_med1_r/activation	glut_med2_r/activation	glut_med3_r/activation	glut_min1_r/activation	glut_min2_r/activation	glut_min3_r/activation	semimem_r/activation	semiten_r/activation	bifemlh_r/activation	bifemsh_r/activation	sar_r/activation	add_long_r/activation	add_brev_r/activation	add_mag1_r/activation	add_mag2_r/activation	add_mag3_r/activation	tfl_r/activation	pect_r/activation	grac_r/activation	glut_max1_r/activation	glut_max2_r/activation	glut_max3_r/activation	iliacus_r/activation	psoas_r/activation	quad_fem_r/activation	gem_r/activation	peri_r/activation	rect_fem_r/activation	vas_med_r/activation	vas_int_r/activation	vas_lat_r/activation	med_gas_r/activation	lat_gas_r/activation	soleus_r/activation	tib_post_r/activation	flex_dig_r/activation	flex_hal_r/activation	tib_ant_r/activation	per_brev_r/activation	per_long_r/activation	per_tert_r/activation	ext_dig_r/activation	ext_hal_r/activation	ercspn_r/activation	intobl_r/activation	extobl_r/activation	
          1.73976506	         -2.92500130	          2.49522930	         -6.42943420	          2.17470633	          0.91691028	          0.00095990	         28.09492551	          4.20585661	         -1.35090752	        -15.64579913	         -2.18987438	          6.62311364	        -11.67628295	        -14.14475181	          3.39236456	         -6.45113048	         -4.54658143	         14.35825201	         -0.26707827	          7.74227773	         -0.82830254	          5.12742934	         -1.43028817	         -0.83423249	          2.24448747	         -7.67198478	        -13.46275002	          4.75430456	          3.61104724	        -13.46915253	         15.63687440	         16.79667748	         39.92258015	         86.51662706	         86.51662706	          0.23295963	          0.22797457	          0.05000013	          0.05000004	          0.05000006	          0.26628239	          0.09114387	          0.08330287	          0.14912016	          0.05000008	          0.05000035	          0.08812459	          0.20582657	          0.24306244	          0.14990030	          0.10718596	          0.05000019	          0.05966586	          0.09813930	          0.05000021	          0.05000070	          0.10503256	          0.05820917	          0.05153843	          0.45686792	          0.17765903	          0.19760705	          0.06011513	          0.15934593	          0.16014010	          0.13600174	          0.05874937	          0.05959543	          0.05881473	          0.05000003	          0.05000020	          0.05000019	          0.52199558	          0.31375757	          0.16416627	          0.27533718	          0.52048644	          0.05942725	          0.05000000	          0.12097671	          0.07670423	          0.32491711	          0.07276506	          0.05333713	          0.20686493	          0.14686576	          0.07935091	          0.05000084	          0.05000028	          0.05000023	          0.05000007	          0.08306964	          0.10028910	          0.05966559	          0.05966535	          0.05966479	          0.05966487	          0.22469065	          0.07035363	          0.05092001	          0.05013238	          0.05232305	          0.05966509	          0.29082874	          0.51498354	          0.05966534	          0.05062672	          0.05000018	          0.18533046	          0.07250261	          0.12499539	          0.11875262	          0.20387441	          0.28139293	          0.28660972	          0.18452105	          0.14487880	          0.20345678	          0.05000001	          0.07375924	          0.21616829	          0.05000006	          0.05000006	          0.05000009	          0.05421817	          0.06227385	          0.06073114	
          1.75136349	         -2.91834405	          2.58857790	         -6.62656953	          2.19272177	          0.91595629	          0.00079487	         27.19952222	          4.47991797	         -1.07854731	        -15.47007535	         -2.49150494	          6.43944013	        -12.02820396	        -16.06248893	          2.80228693	         -7.12128317	         -4.93341079	         15.14278394	         -0.32614430	          5.90571788	         -0.75798358	          7.32290733	         -1.20560789	         -1.05603995	          2.30265649	         -8.57387815	        -13.47245675	          4.71744928	          3.20457478	        -13.47619636	         15.90381476	         16.41044226	         40.97972822	         86.51662706	         86.51662706	          0.33288670	          0.31738247	          0.27037919	          0.15255129	          0.23032367	          0.22314666	          0.07637923	          0.07439178	          0.12496378	          0.07119905	          0.05000040	          0.07384905	          0.17248415	          0.20368814	          0.12561769	          0.13745211	          0.05000015	          0.05000056	          0.08224159	          0.19927022	          0.15008904	          0.11565916	          0.05000002	          0.05000002	          0.38285861	          0.14887957	          0.16559618	          0.05037692	          0.13353332	          0.14072146	          0.11397062	          0.05000001	          0.05000003	          0.05000000	          0.05000000	          0.05000003	          0.05000004	          0.59098918	          0.29607118	          0.16659339	          0.53858125	          0.54380640	          0.23186662	          0.07040273	          0.10137937	          0.06427869	          0.31275086	          0.06097766	          0.05000003	          0.31658954	          0.12307461	          0.06649666	          0.05000069	          0.05000005	          0.05000004	          0.05000011	          0.07115113	          0.08404310	          0.05000025	          0.05000012	          0.05000021	          0.05000010	          0.18829560	          0.05895776	          0.05000018	          0.05000042	          0.05000023	          0.05000013	          0.24371667	          0.48358727	          0.05000004	          0.05000020	          0.05000019	          0.15530836	          0.06611316	          0.12098494	          0.12098493	          0.17084822	          0.23580930	          0.24018100	          0.15462997	          0.12140951	          0.17049827	          0.08214318	          0.15096235	          0.19188480	          0.05000018	          0.11643553	          0.05000032	          0.07046775	          0.05218593	          0.05089314	
          1.76296193	         -2.90975887	          2.67333541	         -6.78505200	          2.21068906	          0.91516396	          0.00059557	         26.33882247	          4.75274048	         -0.81705264	        -15.16755060	         -2.77037987	          6.27008749	        -12.44949275	        -18.12429623	          2.26991257	         -7.88662877	         -5.33295469	         15.84374018	         -0.35669386	          3.83020980	         -0.72338289	          9.57201074	         -0.99445805	         -1.27581020	          2.35196533	         -9.41861713	        -13.47948284	          4.74624034	          2.78703619	        -13.48929618	         16.14651509	         16.02354333	         41.95563584	         86.51662706	         86.51662706	          0.42632128	          0.42535832	          0.42291683	          0.24983894	          0.19301451	          0.33612921	          0.07316830	          0.08661600	          0.10490475	          0.05966536	          0.05000013	          0.06188607	          0.14454310	          0.17279164	          0.19285846	          0.16440494	          0.05000009	          0.05006827	          0.08370277	          0.26523936	          0.20056657	          0.16510681	          0.05000004	          0.05000003	          0.32083828	          0.12476219	          0.21415683	          0.05000001	          0.22148483	          0.22751510	          0.18601530	          0.05000001	          0.05000003	          0.05000000	          0.09241995	          0.05000120	          0.05000033	          0.68720287	          0.24810978	          0.13960646	          0.45133500	          0.54746246	          0.27604735	          0.08995303	          0.08495664	          0.05386601	          0.26208760	          0.05109973	          0.05000001	          0.26530437	          0.10313744	          0.05572470	          0.05000041	          0.05000005	          0.05000005	          0.05000003	          0.05962527	          0.12315128	          0.06956083	          0.05000146	          0.05000129	          0.08805803	          0.15779314	          0.05966567	          0.05000015	          0.05000064	          0.05000042	          0.05000026	          0.20423633	          0.44126651	          0.05000003	          0.05000013	          0.05000002	          0.13014952	          0.10138628	          0.10138634	          0.10138629	          0.14317203	          0.19760988	          0.20127340	          0.12958104	          0.10174208	          0.14287881	          0.16096091	          0.14387346	          0.16080090	          0.17613586	          0.18053526	          0.05000044	          0.09595797	          0.05000000	          0.05000000	
          1.77456036	         -2.90022032	          2.75500478	         -6.90925929	          2.22842160	          0.91465635	          0.00037742	         25.55053087	          5.03478805	         -0.55217775	        -14.70506804	         -3.02371332	          6.10235134	        -12.97491354	        -20.35690937	          1.77124908	         -8.77038717	         -5.74671364	         16.43455793	         -0.37010222	          1.69269307	         -0.70522135	         11.42953037	         -0.80624030	         -1.49998666	          2.39220071	        -10.17251881	        -13.48372401	          4.82962823	          2.40353187	        -13.49776221	         16.39652718	         15.61987313	         42.79460529	         86.51662706	         86.51662706	          0.51215404	          0.50047629	          0.48435395	          0.20936726	          0.29337888	          0.33179545	          0.06196296	          0.08414880	          0.08791130	          0.05000011	          0.05000009	          0.05186100	          0.12112819	          0.15912150	          0.21729115	          0.18752998	          0.05000010	          0.05000046	          0.07014372	          0.31809521	          0.24201170	          0.19796892	          0.05000001	          0.05000001	          0.26886479	          0.10455164	          0.17946508	          0.05000002	          0.31620723	          0.31967924	          0.26359467	          0.05000001	          0.05000004	          0.05000000	          0.13019995	          0.05983289	          0.05065524	          0.72331861	          0.20791779	          0.11699122	          0.37822200	          0.53192204	          0.29220872	          0.09591613	          0.07119427	          0.05000001	          0.21963132	          0.05000005	          0.05000002	          0.22232700	          0.08642995	          0.05000010	          0.05007316	          0.05000039	          0.05000059	          0.05000007	          0.05000032	          0.10320207	          0.23936268	          0.05000080	          0.07257585	          0.10140320	          0.13223196	          0.05000129	          0.05000042	          0.05000058	          0.05000041	          0.05000040	          0.17115152	          0.39356624	          0.05000004	          0.05000024	          0.05000009	          0.10906623	          0.08496245	          0.08496249	          0.08496245	          0.11997919	          0.16559851	          0.16866855	          0.10858988	          0.08526069	          0.11973352	          0.23763345	          0.12056702	          0.13475232	          0.25260616	          0.22035459	          0.14156559	          0.12167553	          0.05000000	          0.05000001	
